<svg width="20" height="20" viewBox="0 0 20 20" fill="none" xmlns="http://www.w3.org/2000/svg">
<path d="M9.99935 1.6665C12.2635 1.6665 12.546 1.67484 13.4343 1.7165C14.3218 1.75817 14.926 1.89734 15.4577 2.104C16.0077 2.31567 16.471 2.60234 16.9343 3.06484C17.3581 3.48142 17.686 3.98533 17.8952 4.5415C18.101 5.07234 18.241 5.67734 18.2827 6.56484C18.3218 7.45317 18.3327 7.73567 18.3327 9.99984C18.3327 12.264 18.3243 12.5465 18.2827 13.4348C18.241 14.3223 18.101 14.9265 17.8952 15.4582C17.6866 16.0147 17.3586 16.5187 16.9343 16.9348C16.5177 17.3584 16.0138 17.6863 15.4577 17.8957C14.9268 18.1015 14.3218 18.2415 13.4343 18.2832C12.546 18.3223 12.2635 18.3332 9.99935 18.3332C7.73518 18.3332 7.45268 18.3248 6.56435 18.2832C5.67685 18.2415 5.07268 18.1015 4.54102 17.8957C3.98462 17.6869 3.48062 17.359 3.06435 16.9348C2.64052 16.5183 2.31263 16.0144 2.10352 15.4582C1.89685 14.9273 1.75768 14.3223 1.71602 13.4348C1.67685 12.5465 1.66602 12.264 1.66602 9.99984C1.66602 7.73567 1.67435 7.45317 1.71602 6.56484C1.75768 5.6765 1.89685 5.07317 2.10352 4.5415C2.31205 3.98499 2.64002 3.48094 3.06435 3.06484C3.48074 2.64086 3.98471 2.31294 4.54102 2.104C5.07268 1.89734 5.67602 1.75817 6.56435 1.7165C7.45268 1.67734 7.73518 1.6665 9.99935 1.6665ZM9.99935 5.83317C8.89428 5.83317 7.83447 6.27216 7.05307 7.05356C6.27167 7.83496 5.83268 8.89477 5.83268 9.99984C5.83268 11.1049 6.27167 12.1647 7.05307 12.9461C7.83447 13.7275 8.89428 14.1665 9.99935 14.1665C11.1044 14.1665 12.1642 13.7275 12.9456 12.9461C13.727 12.1647 14.166 11.1049 14.166 9.99984C14.166 8.89477 13.727 7.83496 12.9456 7.05356C12.1642 6.27216 11.1044 5.83317 9.99935 5.83317V5.83317ZM15.416 5.62484C15.416 5.34857 15.3063 5.08362 15.1109 4.88827C14.9156 4.69292 14.6506 4.58317 14.3743 4.58317C14.0981 4.58317 13.8331 4.69292 13.6378 4.88827C13.4424 5.08362 13.3327 5.34857 13.3327 5.62484C13.3327 5.9011 13.4424 6.16606 13.6378 6.36141C13.8331 6.55676 14.0981 6.6665 14.3743 6.6665C14.6506 6.6665 14.9156 6.55676 15.1109 6.36141C15.3063 6.16606 15.416 5.9011 15.416 5.62484ZM9.99935 7.49984C10.6624 7.49984 11.2983 7.76323 11.7671 8.23207C12.236 8.70091 12.4993 9.3368 12.4993 9.99984C12.4993 10.6629 12.236 11.2988 11.7671 11.7676C11.2983 12.2364 10.6624 12.4998 9.99935 12.4998C9.33631 12.4998 8.70042 12.2364 8.23158 11.7676C7.76274 11.2988 7.49935 10.6629 7.49935 9.99984C7.49935 9.3368 7.76274 8.70091 8.23158 8.23207C8.70042 7.76323 9.33631 7.49984 9.99935 7.49984V7.49984Z" fill="#1E1E1E" fill-opacity="0.75"/>
</svg>
