<svg width="20" height="20" viewBox="0 0 20 20" fill="none" xmlns="http://www.w3.org/2000/svg">
<path fill-rule="evenodd" clip-rule="evenodd" d="M19.15 4.075C18.6075 3.11 18.0188 2.9325 16.82 2.865C15.6225 2.78375 12.6112 2.75 10.0025 2.75C7.38875 2.75 4.37625 2.78375 3.18 2.86375C1.98375 2.9325 1.39375 3.10875 0.84625 4.075C0.2875 5.03875 0 6.69875 0 9.62125V9.63125C0 12.5413 0.2875 14.2138 0.84625 15.1675C1.39375 16.1325 1.9825 16.3075 3.17875 16.3888C4.37625 16.4588 7.38875 16.5 10.0025 16.5C12.6112 16.5 15.6225 16.4587 16.8212 16.39C18.02 16.3087 18.6088 16.1338 19.1513 15.1688C19.715 14.215 20 12.5425 20 9.6325V9.6225C20 6.69875 19.715 5.03875 19.15 4.075Z" fill="#565656"/>
<path fill-rule="evenodd" clip-rule="evenodd" d="M7.5 13.375V5.875L13.75 9.625L7.5 13.375Z" fill="#FAFAFA"/>
</svg>
